<?xml version="1.0" standalone="no"?>
<svg viewBox="0 0 200 200" xmlns="http://www.w3.org/2000/svg">
  <path fill="#FF0066" d="M43.9,-72.5C57.2,-68.4,68.4,-57.2,74.1,-43.9C79.8,-30.6,80,-15.3,80.4,0.2C80.8,15.8,81.4,31.5,73.6,41.2C65.8,50.9,49.7,54.6,36.1,63.2C22.4,71.8,11.2,85.4,-2.7,90C-16.5,94.6,-33.1,90.2,-44.6,80.4C-56.2,70.6,-62.7,55.3,-70.7,41C-78.7,26.7,-88.2,13.3,-87.1,0.6C-86,-12.1,-74.3,-24.1,-65,-36.1C-55.6,-48.1,-48.6,-60.1,-38.2,-65.8C-27.7,-71.6,-13.9,-71,0.7,-72.3C15.3,-73.6,30.7,-76.6,43.9,-72.5Z" transform="translate(100 100)" />
</svg>
